<svg xmlns="http://www.w3.org/2000/svg" width="1240" height="854" viewBox="0 0 1240 854" role="img" aria-label="Matrix of papers by backbone model and generation method"><rect width="1240" height="854" rx="14" fill="#fcfcfb"/><rect x="0.5" y="0.5" width="1239" height="853" rx="14" fill="none" stroke="#e1e0d9"/><text x="40" y="46" font-family="system-ui, -apple-system, 'Segoe UI', sans-serif" font-size="19" font-weight="600" fill="#0b0b0b" text-anchor="start">Papers: backbone model × generation method</text><text x="40" y="70" font-family="system-ui, -apple-system, 'Segoe UI', sans-serif" font-size="13" font-weight="normal" fill="#52514e" text-anchor="start">each chip is a representative paper · chip color = output type</text><circle cx="766" cy="46" r="5" fill="#2a78d6"/><text x="777" y="50" font-family="system-ui, -apple-system, 'Segoe UI', sans-serif" font-size="12" font-weight="normal" fill="#52514e" text-anchor="start">Slide deck</text><circle cx="877.0" cy="46" r="5" fill="#1baf7a"/><text x="888.0" y="50" font-family="system-ui, -apple-system, 'Segoe UI', sans-serif" font-size="12" font-weight="normal" fill="#52514e" text-anchor="start">Poster</text><circle cx="959.2" cy="46" r="5" fill="#eda100"/><text x="970.2" y="50" font-family="system-ui, -apple-system, 'Segoe UI', sans-serif" font-size="12" font-weight="normal" fill="#52514e" text-anchor="start">Layout</text><circle cx="1041.4" cy="46" r="5" fill="#008300"/><text x="1052.4" y="50" font-family="system-ui, -apple-system, 'Segoe UI', sans-serif" font-size="12" font-weight="normal" fill="#52514e" text-anchor="start">Video</text><text x="327.0" y="120" font-family="system-ui, -apple-system, 'Segoe UI', sans-serif" font-size="13" font-weight="600" fill="#0b0b0b" text-anchor="middle">Staged pipeline</text><text x="521.0" y="120" font-family="system-ui, -apple-system, 'Segoe UI', sans-serif" font-size="13" font-weight="600" fill="#0b0b0b" text-anchor="middle">Multi-agent / iterative</text><text x="715.0" y="120" font-family="system-ui, -apple-system, 'Segoe UI', sans-serif" font-size="13" font-weight="600" fill="#0b0b0b" text-anchor="middle">Code generation</text><text x="909.0" y="120" font-family="system-ui, -apple-system, 'Segoe UI', sans-serif" font-size="13" font-weight="600" fill="#0b0b0b" text-anchor="middle">RL post-training</text><text x="1103.0" y="120" font-family="system-ui, -apple-system, 'Segoe UI', sans-serif" font-size="13" font-weight="600" fill="#0b0b0b" text-anchor="middle">Diffusion generation</text><line x1="230.0" y1="132" x2="230.0" y2="796" stroke="#e1e0d9"/><line x1="424.0" y1="132" x2="424.0" y2="796" stroke="#e1e0d9"/><line x1="618.0" y1="132" x2="618.0" y2="796" stroke="#e1e0d9"/><line x1="812.0" y1="132" x2="812.0" y2="796" stroke="#e1e0d9"/><line x1="1006.0" y1="132" x2="1006.0" y2="796" stroke="#e1e0d9"/><line x1="1200.0" y1="132" x2="1200.0" y2="796" stroke="#e1e0d9"/><line x1="40" y1="132" x2="1200" y2="132" stroke="#e1e0d9"/><line x1="40" y1="282" x2="1200" y2="282" stroke="#e1e0d9"/><line x1="40" y1="464" x2="1200" y2="464" stroke="#e1e0d9"/><line x1="40" y1="614" x2="1200" y2="614" stroke="#e1e0d9"/><line x1="40" y1="796" x2="1200" y2="796" stroke="#e1e0d9"/><line x1="40" y1="132" x2="1200" y2="132" stroke="#e1e0d9"/><text x="48" y="203.0" font-family="system-ui, -apple-system, 'Segoe UI', sans-serif" font-size="13" font-weight="600" fill="#0b0b0b" text-anchor="start">Off-the-shelf</text><text x="48" y="221.0" font-family="system-ui, -apple-system, 'Segoe UI', sans-serif" font-size="12" font-weight="normal" fill="#52514e" text-anchor="start">text LLM</text><rect x="242.0" y="178.0" width="170.0" height="26" rx="6" fill="#ffffff" stroke="#d7d6cf" stroke-width="1"/><circle cx="256.0" cy="191.0" r="4.5" fill="#2a78d6"/><text x="268.0" y="195.5" font-family="system-ui, -apple-system, 'Segoe UI', sans-serif" font-size="12" font-weight="normal" fill="#0b0b0b" text-anchor="start">PASS</text><rect x="242.0" y="210.0" width="170.0" height="26" rx="6" fill="#ffffff" stroke="#d7d6cf" stroke-width="1"/><circle cx="256.0" cy="223.0" r="4.5" fill="#2a78d6"/><text x="268.0" y="227.5" font-family="system-ui, -apple-system, 'Segoe UI', sans-serif" font-size="12" font-weight="normal" fill="#0b0b0b" text-anchor="start">Self-Verify</text><rect x="436.0" y="146.0" width="170.0" height="26" rx="6" fill="#ffffff" stroke="#d7d6cf" stroke-width="1"/><circle cx="450.0" cy="159.0" r="4.5" fill="#2a78d6"/><text x="462.0" y="163.5" font-family="system-ui, -apple-system, 'Segoe UI', sans-serif" font-size="12" font-weight="normal" fill="#0b0b0b" text-anchor="start">RCPS</text><rect x="436.0" y="178.0" width="170.0" height="26" rx="6" fill="#ffffff" stroke="#d7d6cf" stroke-width="1"/><circle cx="450.0" cy="191.0" r="4.5" fill="#2a78d6"/><text x="462.0" y="195.5" font-family="system-ui, -apple-system, 'Segoe UI', sans-serif" font-size="12" font-weight="normal" fill="#0b0b0b" text-anchor="start">ArcDeck</text><rect x="436.0" y="210.0" width="170.0" height="26" rx="6" fill="#ffffff" stroke="#d7d6cf" stroke-width="1"/><circle cx="450.0" cy="223.0" r="4.5" fill="#1baf7a"/><text x="462.0" y="227.5" font-family="system-ui, -apple-system, 'Segoe UI', sans-serif" font-size="12" font-weight="normal" fill="#0b0b0b" text-anchor="start">PosterGen</text><rect x="436.0" y="242.0" width="170.0" height="26" rx="6" fill="#ffffff" stroke="#d7d6cf" stroke-width="1"/><circle cx="450.0" cy="255.0" r="4.5" fill="#1baf7a"/><text x="462.0" y="259.5" font-family="system-ui, -apple-system, 'Segoe UI', sans-serif" font-size="12" font-weight="normal" fill="#0b0b0b" text-anchor="start">P2P</text><text x="715.0" y="211.0" font-family="system-ui, -apple-system, 'Segoe UI', sans-serif" font-size="13" font-weight="normal" fill="#e1e0d9" text-anchor="middle">—</text><text x="909.0" y="211.0" font-family="system-ui, -apple-system, 'Segoe UI', sans-serif" font-size="13" font-weight="normal" fill="#e1e0d9" text-anchor="middle">—</text><text x="1103.0" y="211.0" font-family="system-ui, -apple-system, 'Segoe UI', sans-serif" font-size="13" font-weight="normal" fill="#e1e0d9" text-anchor="middle">—</text><text x="48" y="369.0" font-family="system-ui, -apple-system, 'Segoe UI', sans-serif" font-size="13" font-weight="600" fill="#0b0b0b" text-anchor="start">Multimodal</text><text x="48" y="387.0" font-family="system-ui, -apple-system, 'Segoe UI', sans-serif" font-size="12" font-weight="normal" fill="#52514e" text-anchor="start">LLM / VLM</text><rect x="242.0" y="344.0" width="170.0" height="26" rx="6" fill="#ffffff" stroke="#d7d6cf" stroke-width="1"/><circle cx="256.0" cy="357.0" r="4.5" fill="#2a78d6"/><text x="268.0" y="361.5" font-family="system-ui, -apple-system, 'Segoe UI', sans-serif" font-size="12" font-weight="normal" fill="#0b0b0b" text-anchor="start">DocPres</text><rect x="242.0" y="376.0" width="170.0" height="26" rx="6" fill="#ffffff" stroke="#d7d6cf" stroke-width="1"/><circle cx="256.0" cy="389.0" r="4.5" fill="#eda100"/><text x="268.0" y="393.5" font-family="system-ui, -apple-system, 'Segoe UI', sans-serif" font-size="12" font-weight="normal" fill="#0b0b0b" text-anchor="start">ReLayout</text><rect x="436.0" y="296.0" width="170.0" height="26" rx="6" fill="#ffffff" stroke="#d7d6cf" stroke-width="1"/><circle cx="450.0" cy="309.0" r="4.5" fill="#2a78d6"/><text x="462.0" y="313.5" font-family="system-ui, -apple-system, 'Segoe UI', sans-serif" font-size="12" font-weight="normal" fill="#0b0b0b" text-anchor="start">PPTAgent</text><rect x="436.0" y="328.0" width="170.0" height="26" rx="6" fill="#ffffff" stroke="#d7d6cf" stroke-width="1"/><circle cx="450.0" cy="341.0" r="4.5" fill="#2a78d6"/><text x="462.0" y="345.5" font-family="system-ui, -apple-system, 'Segoe UI', sans-serif" font-size="12" font-weight="normal" fill="#0b0b0b" text-anchor="start">DeepPresenter</text><rect x="436.0" y="360.0" width="170.0" height="26" rx="6" fill="#ffffff" stroke="#d7d6cf" stroke-width="1"/><circle cx="450.0" cy="373.0" r="4.5" fill="#1baf7a"/><text x="462.0" y="377.5" font-family="system-ui, -apple-system, 'Segoe UI', sans-serif" font-size="12" font-weight="normal" fill="#0b0b0b" text-anchor="start">Paper2Poster</text><rect x="436.0" y="392.0" width="170.0" height="26" rx="6" fill="#ffffff" stroke="#d7d6cf" stroke-width="1"/><circle cx="450.0" cy="405.0" r="4.5" fill="#008300"/><text x="462.0" y="409.5" font-family="system-ui, -apple-system, 'Segoe UI', sans-serif" font-size="12" font-weight="normal" fill="#0b0b0b" text-anchor="start">Paper2Video</text><rect x="436.0" y="424.0" width="170.0" height="26" rx="6" fill="#ffffff" stroke="#d7d6cf" stroke-width="1"/><circle cx="450.0" cy="437.0" r="4.5" fill="#008300"/><text x="462.0" y="441.5" font-family="system-ui, -apple-system, 'Segoe UI', sans-serif" font-size="12" font-weight="normal" fill="#0b0b0b" text-anchor="start">PresentAgent</text><rect x="630.0" y="344.0" width="170.0" height="26" rx="6" fill="#ffffff" stroke="#d7d6cf" stroke-width="1"/><circle cx="644.0" cy="357.0" r="4.5" fill="#2a78d6"/><text x="656.0" y="361.5" font-family="system-ui, -apple-system, 'Segoe UI', sans-serif" font-size="12" font-weight="normal" fill="#0b0b0b" text-anchor="start">PreGenie</text><rect x="630.0" y="376.0" width="170.0" height="26" rx="6" fill="#ffffff" stroke="#d7d6cf" stroke-width="1"/><circle cx="644.0" cy="389.0" r="4.5" fill="#1baf7a"/><text x="656.0" y="393.5" font-family="system-ui, -apple-system, 'Segoe UI', sans-serif" font-size="12" font-weight="normal" fill="#0b0b0b" text-anchor="start">CreatiPoster</text><rect x="824.0" y="360.0" width="170.0" height="26" rx="6" fill="#ffffff" stroke="#d7d6cf" stroke-width="1"/><circle cx="838.0" cy="373.0" r="4.5" fill="#2a78d6"/><text x="850.0" y="377.5" font-family="system-ui, -apple-system, 'Segoe UI', sans-serif" font-size="12" font-weight="normal" fill="#0b0b0b" text-anchor="start">EvoPresent</text><text x="1103.0" y="377.0" font-family="system-ui, -apple-system, 'Segoe UI', sans-serif" font-size="13" font-weight="normal" fill="#e1e0d9" text-anchor="middle">—</text><text x="48" y="535.0" font-family="system-ui, -apple-system, 'Segoe UI', sans-serif" font-size="13" font-weight="600" fill="#0b0b0b" text-anchor="start">Fine-tuned /</text><text x="48" y="553.0" font-family="system-ui, -apple-system, 'Segoe UI', sans-serif" font-size="12" font-weight="normal" fill="#52514e" text-anchor="start">specialized LM</text><rect x="242.0" y="478.0" width="170.0" height="26" rx="6" fill="#ffffff" stroke="#d7d6cf" stroke-width="1"/><circle cx="256.0" cy="491.0" r="4.5" fill="#2a78d6"/><text x="268.0" y="495.5" font-family="system-ui, -apple-system, 'Segoe UI', sans-serif" font-size="12" font-weight="normal" fill="#0b0b0b" text-anchor="start">DOC2PPT</text><rect x="242.0" y="510.0" width="170.0" height="26" rx="6" fill="#ffffff" stroke="#d7d6cf" stroke-width="1"/><circle cx="256.0" cy="523.0" r="4.5" fill="#2a78d6"/><text x="268.0" y="527.5" font-family="system-ui, -apple-system, 'Segoe UI', sans-serif" font-size="12" font-weight="normal" fill="#0b0b0b" text-anchor="start">D2S</text><rect x="242.0" y="542.0" width="170.0" height="26" rx="6" fill="#ffffff" stroke="#d7d6cf" stroke-width="1"/><circle cx="256.0" cy="555.0" r="4.5" fill="#eda100"/><text x="268.0" y="559.5" font-family="system-ui, -apple-system, 'Segoe UI', sans-serif" font-size="12" font-weight="normal" fill="#0b0b0b" text-anchor="start">PosterLlama</text><rect x="242.0" y="574.0" width="170.0" height="26" rx="6" fill="#ffffff" stroke="#d7d6cf" stroke-width="1"/><circle cx="256.0" cy="587.0" r="4.5" fill="#eda100"/><text x="268.0" y="591.5" font-family="system-ui, -apple-system, 'Segoe UI', sans-serif" font-size="12" font-weight="normal" fill="#0b0b0b" text-anchor="start">PosterLLaVa</text><text x="521.0" y="543.0" font-family="system-ui, -apple-system, 'Segoe UI', sans-serif" font-size="13" font-weight="normal" fill="#e1e0d9" text-anchor="middle">—</text><rect x="630.0" y="494.0" width="170.0" height="26" rx="6" fill="#ffffff" stroke="#d7d6cf" stroke-width="1"/><circle cx="644.0" cy="507.0" r="4.5" fill="#2a78d6"/><text x="656.0" y="511.5" font-family="system-ui, -apple-system, 'Segoe UI', sans-serif" font-size="12" font-weight="normal" fill="#0b0b0b" text-anchor="start">AutoPresent</text><rect x="630.0" y="526.0" width="170.0" height="26" rx="6" fill="#ffffff" stroke="#d7d6cf" stroke-width="1"/><circle cx="644.0" cy="539.0" r="4.5" fill="#2a78d6"/><text x="656.0" y="543.5" font-family="system-ui, -apple-system, 'Segoe UI', sans-serif" font-size="12" font-weight="normal" fill="#0b0b0b" text-anchor="start">SlideCoder</text><rect x="630.0" y="558.0" width="170.0" height="26" rx="6" fill="#ffffff" stroke="#d7d6cf" stroke-width="1"/><circle cx="644.0" cy="571.0" r="4.5" fill="#2a78d6"/><text x="656.0" y="575.5" font-family="system-ui, -apple-system, 'Segoe UI', sans-serif" font-size="12" font-weight="normal" fill="#0b0b0b" text-anchor="start">DeepSlides</text><rect x="824.0" y="510.0" width="170.0" height="26" rx="6" fill="#ffffff" stroke="#d7d6cf" stroke-width="1"/><circle cx="838.0" cy="523.0" r="4.5" fill="#eda100"/><text x="850.0" y="527.5" font-family="system-ui, -apple-system, 'Segoe UI', sans-serif" font-size="12" font-weight="normal" fill="#0b0b0b" text-anchor="start">AeSlides</text><rect x="824.0" y="542.0" width="170.0" height="26" rx="6" fill="#ffffff" stroke="#d7d6cf" stroke-width="1"/><circle cx="838.0" cy="555.0" r="4.5" fill="#eda100"/><text x="850.0" y="559.5" font-family="system-ui, -apple-system, 'Segoe UI', sans-serif" font-size="12" font-weight="normal" fill="#0b0b0b" text-anchor="start">LaySPA</text><text x="1103.0" y="543.0" font-family="system-ui, -apple-system, 'Segoe UI', sans-serif" font-size="13" font-weight="normal" fill="#e1e0d9" text-anchor="middle">—</text><text x="48" y="701.0" font-family="system-ui, -apple-system, 'Segoe UI', sans-serif" font-size="13" font-weight="600" fill="#0b0b0b" text-anchor="start">Diffusion</text><text x="48" y="719.0" font-family="system-ui, -apple-system, 'Segoe UI', sans-serif" font-size="12" font-weight="normal" fill="#52514e" text-anchor="start">model</text><text x="327.0" y="709.0" font-family="system-ui, -apple-system, 'Segoe UI', sans-serif" font-size="13" font-weight="normal" fill="#e1e0d9" text-anchor="middle">—</text><text x="521.0" y="709.0" font-family="system-ui, -apple-system, 'Segoe UI', sans-serif" font-size="13" font-weight="normal" fill="#e1e0d9" text-anchor="middle">—</text><text x="715.0" y="709.0" font-family="system-ui, -apple-system, 'Segoe UI', sans-serif" font-size="13" font-weight="normal" fill="#e1e0d9" text-anchor="middle">—</text><text x="909.0" y="709.0" font-family="system-ui, -apple-system, 'Segoe UI', sans-serif" font-size="13" font-weight="normal" fill="#e1e0d9" text-anchor="middle">—</text><rect x="1018.0" y="628.0" width="170.0" height="26" rx="6" fill="#ffffff" stroke="#d7d6cf" stroke-width="1"/><circle cx="1032.0" cy="641.0" r="4.5" fill="#eda100"/><text x="1044.0" y="645.5" font-family="system-ui, -apple-system, 'Segoe UI', sans-serif" font-size="12" font-weight="normal" fill="#0b0b0b" text-anchor="start">RA-Diffusion</text><rect x="1018.0" y="660.0" width="170.0" height="26" rx="6" fill="#ffffff" stroke="#d7d6cf" stroke-width="1"/><circle cx="1032.0" cy="673.0" r="4.5" fill="#eda100"/><text x="1044.0" y="677.5" font-family="system-ui, -apple-system, 'Segoe UI', sans-serif" font-size="12" font-weight="normal" fill="#0b0b0b" text-anchor="start">UniLayDiff</text><rect x="1018.0" y="692.0" width="170.0" height="26" rx="6" fill="#ffffff" stroke="#d7d6cf" stroke-width="1"/><circle cx="1032.0" cy="705.0" r="4.5" fill="#eda100"/><text x="1044.0" y="709.5" font-family="system-ui, -apple-system, 'Segoe UI', sans-serif" font-size="12" font-weight="normal" fill="#0b0b0b" text-anchor="start">iPoster</text><rect x="1018.0" y="724.0" width="170.0" height="26" rx="6" fill="#ffffff" stroke="#d7d6cf" stroke-width="1"/><circle cx="1032.0" cy="737.0" r="4.5" fill="#1baf7a"/><text x="1044.0" y="741.5" font-family="system-ui, -apple-system, 'Segoe UI', sans-serif" font-size="12" font-weight="normal" fill="#0b0b0b" text-anchor="start">POSTA</text><rect x="1018.0" y="756.0" width="170.0" height="26" rx="6" fill="#ffffff" stroke="#d7d6cf" stroke-width="1"/><circle cx="1032.0" cy="769.0" r="4.5" fill="#1baf7a"/><text x="1044.0" y="773.5" font-family="system-ui, -apple-system, 'Segoe UI', sans-serif" font-size="12" font-weight="normal" fill="#0b0b0b" text-anchor="start">PosterOmni</text><text x="40" y="830" font-family="system-ui, -apple-system, 'Segoe UI', sans-serif" font-size="12" font-weight="normal" fill="#898781" text-anchor="start">Representative works only — agentic systems often span several cells; see the README tables for the full list.</text></svg>
