<svg xmlns="http://www.w3.org/2000/svg" width="1240" height="600" viewBox="0 0 1240 600" role="img" aria-label="Taxonomy: inputs, generation methods, and outputs"><rect width="1240" height="600" rx="14" fill="#fcfcfb"/><rect x="0.5" y="0.5" width="1239" height="599" rx="14" fill="none" stroke="#e1e0d9"/><text x="70" y="52" font-family="system-ui, -apple-system, 'Segoe UI', sans-serif" font-size="19" font-weight="600" fill="#0b0b0b" text-anchor="start">Presentation generation at a glance</text><text x="70" y="76" font-family="system-ui, -apple-system, 'Segoe UI', sans-serif" font-size="13" font-weight="normal" fill="#52514e" text-anchor="start">what goes in, how it is generated, and what comes out</text><text x="195.0" y="106" font-family="system-ui, -apple-system, 'Segoe UI', sans-serif" font-size="12" font-weight="600" fill="#898781" text-anchor="middle" letter-spacing="2.5">INPUT</text><text x="620.0" y="106" font-family="system-ui, -apple-system, 'Segoe UI', sans-serif" font-size="12" font-weight="600" fill="#898781" text-anchor="middle" letter-spacing="2.5">METHOD</text><text x="1045.0" y="106" font-family="system-ui, -apple-system, 'Segoe UI', sans-serif" font-size="12" font-weight="600" fill="#898781" text-anchor="middle" letter-spacing="2.5">OUTPUT</text><path d="M 320 147.0 C 407.5 147.0, 407.5 147.0, 495 147.0" fill="none" stroke="#d7d6cf" stroke-width="2" stroke-opacity="0.5" stroke-linecap="round"/><path d="M 320 159.0 C 407.5 159.0, 407.5 231.0, 495 231.0" fill="none" stroke="#d7d6cf" stroke-width="2" stroke-opacity="0.5" stroke-linecap="round"/><path d="M 320 171.0 C 407.5 171.0, 407.5 339.0, 495 339.0" fill="none" stroke="#d7d6cf" stroke-width="2" stroke-opacity="0.5" stroke-linecap="round"/><path d="M 320 243.0 C 407.5 243.0, 407.5 159.0, 495 159.0" fill="none" stroke="#d7d6cf" stroke-width="2" stroke-opacity="0.5" stroke-linecap="round"/><path d="M 320 255.0 C 407.5 255.0, 407.5 243.0, 495 243.0" fill="none" stroke="#d7d6cf" stroke-width="2" stroke-opacity="0.5" stroke-linecap="round"/><path d="M 320 333.0 C 407.5 333.0, 407.5 255.0, 495 255.0" fill="none" stroke="#d7d6cf" stroke-width="2" stroke-opacity="0.5" stroke-linecap="round"/><path d="M 320 345.0 C 407.5 345.0, 407.5 171.0, 495 171.0" fill="none" stroke="#d7d6cf" stroke-width="2" stroke-opacity="0.5" stroke-linecap="round"/><path d="M 320 429.0 C 407.5 429.0, 407.5 267.0, 495 267.0" fill="none" stroke="#d7d6cf" stroke-width="2" stroke-opacity="0.5" stroke-linecap="round"/><path d="M 745 159.0 C 832.5 159.0, 832.5 147.0, 920 147.0" fill="none" stroke="#2a78d6" stroke-width="2" stroke-opacity="0.5" stroke-linecap="round"/><path d="M 745 237.0 C 832.5 237.0, 832.5 159.0, 920 159.0" fill="none" stroke="#2a78d6" stroke-width="2" stroke-opacity="0.5" stroke-linecap="round"/><path d="M 745 249.0 C 832.5 249.0, 832.5 237.0, 920 237.0" fill="none" stroke="#1baf7a" stroke-width="2" stroke-opacity="0.5" stroke-linecap="round"/><path d="M 745 261.0 C 832.5 261.0, 832.5 429.0, 920 429.0" fill="none" stroke="#008300" stroke-width="2" stroke-opacity="0.5" stroke-linecap="round"/><path d="M 745 333.0 C 832.5 333.0, 832.5 171.0, 920 171.0" fill="none" stroke="#2a78d6" stroke-width="2" stroke-opacity="0.5" stroke-linecap="round"/><path d="M 745 345.0 C 832.5 345.0, 832.5 249.0, 920 249.0" fill="none" stroke="#1baf7a" stroke-width="2" stroke-opacity="0.5" stroke-linecap="round"/><path d="M 745 423.0 C 832.5 423.0, 832.5 339.0, 920 339.0" fill="none" stroke="#eda100" stroke-width="2" stroke-opacity="0.5" stroke-linecap="round"/><path d="M 745 435.0 C 832.5 435.0, 832.5 261.0, 920 261.0" fill="none" stroke="#1baf7a" stroke-width="2" stroke-opacity="0.5" stroke-linecap="round"/><rect x="70" y="128" width="250" height="62" rx="9" fill="#ffffff" stroke="#d7d6cf" stroke-width="1"/><text x="88" y="154" font-family="system-ui, -apple-system, 'Segoe UI', sans-serif" font-size="14.5" font-weight="600" fill="#0b0b0b" text-anchor="start">Prompt / Topic</text><text x="88" y="174" font-family="system-ui, -apple-system, 'Segoe UI', sans-serif" font-size="12" font-weight="normal" fill="#52514e" text-anchor="start">a sentence or a theme</text><rect x="70" y="218" width="250" height="62" rx="9" fill="#ffffff" stroke="#d7d6cf" stroke-width="1"/><text x="88" y="244" font-family="system-ui, -apple-system, 'Segoe UI', sans-serif" font-size="14.5" font-weight="600" fill="#0b0b0b" text-anchor="start">Document / Report</text><text x="88" y="264" font-family="system-ui, -apple-system, 'Segoe UI', sans-serif" font-size="12" font-weight="normal" fill="#52514e" text-anchor="start">long-form source text</text><rect x="70" y="308" width="250" height="62" rx="9" fill="#ffffff" stroke="#d7d6cf" stroke-width="1"/><text x="88" y="334" font-family="system-ui, -apple-system, 'Segoe UI', sans-serif" font-size="14.5" font-weight="600" fill="#0b0b0b" text-anchor="start">Scientific Paper</text><text x="88" y="354" font-family="system-ui, -apple-system, 'Segoe UI', sans-serif" font-size="12" font-weight="normal" fill="#52514e" text-anchor="start">PDF with figures &amp; structure</text><rect x="70" y="398" width="250" height="62" rx="9" fill="#ffffff" stroke="#d7d6cf" stroke-width="1"/><text x="88" y="424" font-family="system-ui, -apple-system, 'Segoe UI', sans-serif" font-size="14.5" font-weight="600" fill="#0b0b0b" text-anchor="start">Existing Deck</text><text x="88" y="444" font-family="system-ui, -apple-system, 'Segoe UI', sans-serif" font-size="12" font-weight="normal" fill="#52514e" text-anchor="start">+ natural-language edit requests</text><rect x="495" y="128" width="250" height="62" rx="9" fill="#ffffff" stroke="#d7d6cf" stroke-width="1"/><text x="513" y="154" font-family="system-ui, -apple-system, 'Segoe UI', sans-serif" font-size="14.5" font-weight="600" fill="#0b0b0b" text-anchor="start">Staged LLM pipeline</text><text x="513" y="174" font-family="system-ui, -apple-system, 'Segoe UI', sans-serif" font-size="12" font-weight="normal" fill="#52514e" text-anchor="start">outline → content → layout</text><rect x="495" y="218" width="250" height="62" rx="9" fill="#ffffff" stroke="#d7d6cf" stroke-width="1"/><text x="513" y="244" font-family="system-ui, -apple-system, 'Segoe UI', sans-serif" font-size="14.5" font-weight="600" fill="#0b0b0b" text-anchor="start">Multi-agent / iterative</text><text x="513" y="264" font-family="system-ui, -apple-system, 'Segoe UI', sans-serif" font-size="12" font-weight="normal" fill="#52514e" text-anchor="start">roles + reflection on rendered output</text><rect x="495" y="308" width="250" height="62" rx="9" fill="#ffffff" stroke="#d7d6cf" stroke-width="1"/><text x="513" y="334" font-family="system-ui, -apple-system, 'Segoe UI', sans-serif" font-size="14.5" font-weight="600" fill="#0b0b0b" text-anchor="start">Code generation</text><text x="513" y="354" font-family="system-ui, -apple-system, 'Segoe UI', sans-serif" font-size="12" font-weight="normal" fill="#52514e" text-anchor="start">emit python-pptx · HTML · Slidev</text><rect x="495" y="398" width="250" height="62" rx="9" fill="#ffffff" stroke="#d7d6cf" stroke-width="1"/><text x="513" y="424" font-family="system-ui, -apple-system, 'Segoe UI', sans-serif" font-size="14.5" font-weight="600" fill="#0b0b0b" text-anchor="start">Diffusion / layout model</text><text x="513" y="444" font-family="system-ui, -apple-system, 'Segoe UI', sans-serif" font-size="12" font-weight="normal" fill="#52514e" text-anchor="start">place and size canvas elements</text><rect x="920" y="128" width="250" height="62" rx="9" fill="#ffffff" stroke="#d7d6cf" stroke-width="1"/><line x1="922" y1="138" x2="922" y2="180" stroke="#2a78d6" stroke-width="4" stroke-linecap="round"/><text x="942" y="154" font-family="system-ui, -apple-system, 'Segoe UI', sans-serif" font-size="14.5" font-weight="600" fill="#0b0b0b" text-anchor="start">Slide deck</text><text x="942" y="174" font-family="system-ui, -apple-system, 'Segoe UI', sans-serif" font-size="12" font-weight="normal" fill="#52514e" text-anchor="start">editable PPTX · HTML deck</text><rect x="920" y="218" width="250" height="62" rx="9" fill="#ffffff" stroke="#d7d6cf" stroke-width="1"/><line x1="922" y1="228" x2="922" y2="270" stroke="#1baf7a" stroke-width="4" stroke-linecap="round"/><text x="942" y="244" font-family="system-ui, -apple-system, 'Segoe UI', sans-serif" font-size="14.5" font-weight="600" fill="#0b0b0b" text-anchor="start">Poster</text><text x="942" y="264" font-family="system-ui, -apple-system, 'Segoe UI', sans-serif" font-size="12" font-weight="normal" fill="#52514e" text-anchor="start">research or artistic poster</text><rect x="920" y="308" width="250" height="62" rx="9" fill="#ffffff" stroke="#d7d6cf" stroke-width="1"/><line x1="922" y1="318" x2="922" y2="360" stroke="#eda100" stroke-width="4" stroke-linecap="round"/><text x="942" y="334" font-family="system-ui, -apple-system, 'Segoe UI', sans-serif" font-size="14.5" font-weight="600" fill="#0b0b0b" text-anchor="start">Layout</text><text x="942" y="354" font-family="system-ui, -apple-system, 'Segoe UI', sans-serif" font-size="12" font-weight="normal" fill="#52514e" text-anchor="start">positioned elements on a canvas</text><rect x="920" y="398" width="250" height="62" rx="9" fill="#ffffff" stroke="#d7d6cf" stroke-width="1"/><line x1="922" y1="408" x2="922" y2="450" stroke="#008300" stroke-width="4" stroke-linecap="round"/><text x="942" y="424" font-family="system-ui, -apple-system, 'Segoe UI', sans-serif" font-size="14.5" font-weight="600" fill="#0b0b0b" text-anchor="start">Presentation video</text><text x="942" y="444" font-family="system-ui, -apple-system, 'Segoe UI', sans-serif" font-size="12" font-weight="normal" fill="#52514e" text-anchor="start">narrated slides + synced speech</text><rect x="485" y="484" width="270" height="30" rx="15" fill="none" stroke="#d7d6cf" stroke-dasharray="4 4"/><text x="620.0" y="503.5" font-family="system-ui, -apple-system, 'Segoe UI', sans-serif" font-size="12" font-weight="normal" fill="#52514e" text-anchor="middle">↺ RL post-training can be layered on any method</text></svg>
